%TF.GenerationSoftware,KiCad,Pcbnew,8.0.7*%
%TF.CreationDate,2025-06-15T19:50:54+01:00*%
%TF.ProjectId,thermistor,74686572-6d69-4737-946f-722e6b696361,rev?*%
%TF.SameCoordinates,Original*%
%TF.FileFunction,Legend,Top*%
%TF.FilePolarity,Positive*%
%FSLAX46Y46*%
G04 Gerber Fmt 4.6, Leading zero omitted, Abs format (unit mm)*
G04 Created by KiCad (PCBNEW 8.0.7) date 2025-06-15 19:50:54*
%MOMM*%
%LPD*%
G01*
G04 APERTURE LIST*
%ADD10C,0.150000*%
%ADD11C,0.120000*%
G04 APERTURE END LIST*
D10*
X86516667Y-49472295D02*
X86250000Y-49091342D01*
X86059524Y-49472295D02*
X86059524Y-48672295D01*
X86059524Y-48672295D02*
X86364286Y-48672295D01*
X86364286Y-48672295D02*
X86440476Y-48710390D01*
X86440476Y-48710390D02*
X86478571Y-48748485D01*
X86478571Y-48748485D02*
X86516667Y-48824676D01*
X86516667Y-48824676D02*
X86516667Y-48938961D01*
X86516667Y-48938961D02*
X86478571Y-49015152D01*
X86478571Y-49015152D02*
X86440476Y-49053247D01*
X86440476Y-49053247D02*
X86364286Y-49091342D01*
X86364286Y-49091342D02*
X86059524Y-49091342D01*
X87240476Y-48672295D02*
X86859524Y-48672295D01*
X86859524Y-48672295D02*
X86821428Y-49053247D01*
X86821428Y-49053247D02*
X86859524Y-49015152D01*
X86859524Y-49015152D02*
X86935714Y-48977057D01*
X86935714Y-48977057D02*
X87126190Y-48977057D01*
X87126190Y-48977057D02*
X87202381Y-49015152D01*
X87202381Y-49015152D02*
X87240476Y-49053247D01*
X87240476Y-49053247D02*
X87278571Y-49129438D01*
X87278571Y-49129438D02*
X87278571Y-49319914D01*
X87278571Y-49319914D02*
X87240476Y-49396104D01*
X87240476Y-49396104D02*
X87202381Y-49434200D01*
X87202381Y-49434200D02*
X87126190Y-49472295D01*
X87126190Y-49472295D02*
X86935714Y-49472295D01*
X86935714Y-49472295D02*
X86859524Y-49434200D01*
X86859524Y-49434200D02*
X86821428Y-49396104D01*
X77266667Y-48362295D02*
X77000000Y-47981342D01*
X76809524Y-48362295D02*
X76809524Y-47562295D01*
X76809524Y-47562295D02*
X77114286Y-47562295D01*
X77114286Y-47562295D02*
X77190476Y-47600390D01*
X77190476Y-47600390D02*
X77228571Y-47638485D01*
X77228571Y-47638485D02*
X77266667Y-47714676D01*
X77266667Y-47714676D02*
X77266667Y-47828961D01*
X77266667Y-47828961D02*
X77228571Y-47905152D01*
X77228571Y-47905152D02*
X77190476Y-47943247D01*
X77190476Y-47943247D02*
X77114286Y-47981342D01*
X77114286Y-47981342D02*
X76809524Y-47981342D01*
X77952381Y-47828961D02*
X77952381Y-48362295D01*
X77761905Y-47524200D02*
X77571428Y-48095628D01*
X77571428Y-48095628D02*
X78066667Y-48095628D01*
X77316667Y-47212295D02*
X77050000Y-46831342D01*
X76859524Y-47212295D02*
X76859524Y-46412295D01*
X76859524Y-46412295D02*
X77164286Y-46412295D01*
X77164286Y-46412295D02*
X77240476Y-46450390D01*
X77240476Y-46450390D02*
X77278571Y-46488485D01*
X77278571Y-46488485D02*
X77316667Y-46564676D01*
X77316667Y-46564676D02*
X77316667Y-46678961D01*
X77316667Y-46678961D02*
X77278571Y-46755152D01*
X77278571Y-46755152D02*
X77240476Y-46793247D01*
X77240476Y-46793247D02*
X77164286Y-46831342D01*
X77164286Y-46831342D02*
X76859524Y-46831342D01*
X77583333Y-46412295D02*
X78078571Y-46412295D01*
X78078571Y-46412295D02*
X77811905Y-46717057D01*
X77811905Y-46717057D02*
X77926190Y-46717057D01*
X77926190Y-46717057D02*
X78002381Y-46755152D01*
X78002381Y-46755152D02*
X78040476Y-46793247D01*
X78040476Y-46793247D02*
X78078571Y-46869438D01*
X78078571Y-46869438D02*
X78078571Y-47059914D01*
X78078571Y-47059914D02*
X78040476Y-47136104D01*
X78040476Y-47136104D02*
X78002381Y-47174200D01*
X78002381Y-47174200D02*
X77926190Y-47212295D01*
X77926190Y-47212295D02*
X77697619Y-47212295D01*
X77697619Y-47212295D02*
X77621428Y-47174200D01*
X77621428Y-47174200D02*
X77583333Y-47136104D01*
X86506667Y-47162295D02*
X86240000Y-46781342D01*
X86049524Y-47162295D02*
X86049524Y-46362295D01*
X86049524Y-46362295D02*
X86354286Y-46362295D01*
X86354286Y-46362295D02*
X86430476Y-46400390D01*
X86430476Y-46400390D02*
X86468571Y-46438485D01*
X86468571Y-46438485D02*
X86506667Y-46514676D01*
X86506667Y-46514676D02*
X86506667Y-46628961D01*
X86506667Y-46628961D02*
X86468571Y-46705152D01*
X86468571Y-46705152D02*
X86430476Y-46743247D01*
X86430476Y-46743247D02*
X86354286Y-46781342D01*
X86354286Y-46781342D02*
X86049524Y-46781342D01*
X86811428Y-46438485D02*
X86849524Y-46400390D01*
X86849524Y-46400390D02*
X86925714Y-46362295D01*
X86925714Y-46362295D02*
X87116190Y-46362295D01*
X87116190Y-46362295D02*
X87192381Y-46400390D01*
X87192381Y-46400390D02*
X87230476Y-46438485D01*
X87230476Y-46438485D02*
X87268571Y-46514676D01*
X87268571Y-46514676D02*
X87268571Y-46590866D01*
X87268571Y-46590866D02*
X87230476Y-46705152D01*
X87230476Y-46705152D02*
X86773333Y-47162295D01*
X86773333Y-47162295D02*
X87268571Y-47162295D01*
X86546667Y-46022295D02*
X86280000Y-45641342D01*
X86089524Y-46022295D02*
X86089524Y-45222295D01*
X86089524Y-45222295D02*
X86394286Y-45222295D01*
X86394286Y-45222295D02*
X86470476Y-45260390D01*
X86470476Y-45260390D02*
X86508571Y-45298485D01*
X86508571Y-45298485D02*
X86546667Y-45374676D01*
X86546667Y-45374676D02*
X86546667Y-45488961D01*
X86546667Y-45488961D02*
X86508571Y-45565152D01*
X86508571Y-45565152D02*
X86470476Y-45603247D01*
X86470476Y-45603247D02*
X86394286Y-45641342D01*
X86394286Y-45641342D02*
X86089524Y-45641342D01*
X87308571Y-46022295D02*
X86851428Y-46022295D01*
X87080000Y-46022295D02*
X87080000Y-45222295D01*
X87080000Y-45222295D02*
X87003809Y-45336580D01*
X87003809Y-45336580D02*
X86927619Y-45412771D01*
X86927619Y-45412771D02*
X86851428Y-45450866D01*
X86496667Y-48246104D02*
X86458571Y-48284200D01*
X86458571Y-48284200D02*
X86344286Y-48322295D01*
X86344286Y-48322295D02*
X86268095Y-48322295D01*
X86268095Y-48322295D02*
X86153809Y-48284200D01*
X86153809Y-48284200D02*
X86077619Y-48208009D01*
X86077619Y-48208009D02*
X86039524Y-48131819D01*
X86039524Y-48131819D02*
X86001428Y-47979438D01*
X86001428Y-47979438D02*
X86001428Y-47865152D01*
X86001428Y-47865152D02*
X86039524Y-47712771D01*
X86039524Y-47712771D02*
X86077619Y-47636580D01*
X86077619Y-47636580D02*
X86153809Y-47560390D01*
X86153809Y-47560390D02*
X86268095Y-47522295D01*
X86268095Y-47522295D02*
X86344286Y-47522295D01*
X86344286Y-47522295D02*
X86458571Y-47560390D01*
X86458571Y-47560390D02*
X86496667Y-47598485D01*
X87258571Y-48322295D02*
X86801428Y-48322295D01*
X87030000Y-48322295D02*
X87030000Y-47522295D01*
X87030000Y-47522295D02*
X86953809Y-47636580D01*
X86953809Y-47636580D02*
X86877619Y-47712771D01*
X86877619Y-47712771D02*
X86801428Y-47750866D01*
X81459524Y-50312295D02*
X81459524Y-49512295D01*
X81459524Y-49512295D02*
X81650000Y-49512295D01*
X81650000Y-49512295D02*
X81764286Y-49550390D01*
X81764286Y-49550390D02*
X81840476Y-49626580D01*
X81840476Y-49626580D02*
X81878571Y-49702771D01*
X81878571Y-49702771D02*
X81916667Y-49855152D01*
X81916667Y-49855152D02*
X81916667Y-49969438D01*
X81916667Y-49969438D02*
X81878571Y-50121819D01*
X81878571Y-50121819D02*
X81840476Y-50198009D01*
X81840476Y-50198009D02*
X81764286Y-50274200D01*
X81764286Y-50274200D02*
X81650000Y-50312295D01*
X81650000Y-50312295D02*
X81459524Y-50312295D01*
X82678571Y-50312295D02*
X82221428Y-50312295D01*
X82450000Y-50312295D02*
X82450000Y-49512295D01*
X82450000Y-49512295D02*
X82373809Y-49626580D01*
X82373809Y-49626580D02*
X82297619Y-49702771D01*
X82297619Y-49702771D02*
X82221428Y-49740866D01*
D11*
%TO.C,R5*%
X84726359Y-48720000D02*
X85033641Y-48720000D01*
X84726359Y-49480000D02*
X85033641Y-49480000D01*
%TO.C,R4*%
X79036359Y-47570000D02*
X79343641Y-47570000D01*
X79036359Y-48330000D02*
X79343641Y-48330000D01*
%TO.C,R3*%
X79343641Y-46420000D02*
X79036359Y-46420000D01*
X79343641Y-47180000D02*
X79036359Y-47180000D01*
%TO.C,R2*%
X85033641Y-47180000D02*
X84726359Y-47180000D01*
X85033641Y-46420000D02*
X84726359Y-46420000D01*
%TO.C,R1*%
X84726359Y-46030000D02*
X85033641Y-46030000D01*
X84726359Y-45270000D02*
X85033641Y-45270000D01*
%TO.C,C1*%
X84967836Y-48310000D02*
X84752164Y-48310000D01*
X84967836Y-47590000D02*
X84752164Y-47590000D01*
%TO.C,D1*%
X83610000Y-47412500D02*
X83610000Y-46762500D01*
X83610000Y-47412500D02*
X83610000Y-48062500D01*
X80490000Y-47412500D02*
X80490000Y-46762500D01*
X80490000Y-47412500D02*
X80490000Y-48062500D01*
X83890000Y-46490000D02*
X83560000Y-46250000D01*
X83890000Y-46010000D01*
X83890000Y-46490000D01*
G36*
X83890000Y-46490000D02*
G01*
X83560000Y-46250000D01*
X83890000Y-46010000D01*
X83890000Y-46490000D01*
G37*
%TD*%
M02*
