%TF.GenerationSoftware,KiCad,Pcbnew,8.0.7*%
%TF.CreationDate,2025-06-15T19:50:54+01:00*%
%TF.ProjectId,thermistor,74686572-6d69-4737-946f-722e6b696361,rev?*%
%TF.SameCoordinates,Original*%
%TF.FileFunction,Soldermask,Top*%
%TF.FilePolarity,Negative*%
%FSLAX46Y46*%
G04 Gerber Fmt 4.6, Leading zero omitted, Abs format (unit mm)*
G04 Created by KiCad (PCBNEW 8.0.7) date 2025-06-15 19:50:54*
%MOMM*%
%LPD*%
G01*
G04 APERTURE LIST*
G04 APERTURE END LIST*
G36*
X89256830Y-48923679D02*
G01*
X89262220Y-48926192D01*
X89264845Y-48926575D01*
X89302127Y-48944801D01*
X89360097Y-48971833D01*
X89440667Y-49052403D01*
X89467709Y-49110395D01*
X89485924Y-49147654D01*
X89486306Y-49150276D01*
X89488821Y-49155670D01*
X89500000Y-49240584D01*
X89500000Y-50584416D01*
X89488821Y-50669330D01*
X89486305Y-50674723D01*
X89485924Y-50677345D01*
X89467719Y-50714583D01*
X89440667Y-50772597D01*
X89360097Y-50853167D01*
X89302083Y-50880219D01*
X89264845Y-50898424D01*
X89262223Y-50898805D01*
X89256830Y-50901321D01*
X89171916Y-50912500D01*
X87828084Y-50912500D01*
X87743170Y-50901321D01*
X87737776Y-50898806D01*
X87735154Y-50898424D01*
X87697895Y-50880209D01*
X87639903Y-50853167D01*
X87559333Y-50772597D01*
X87532301Y-50714627D01*
X87514075Y-50677345D01*
X87513692Y-50674720D01*
X87511179Y-50669330D01*
X87500000Y-50584416D01*
X87500000Y-49240584D01*
X87511179Y-49155670D01*
X87513692Y-49150279D01*
X87514075Y-49147654D01*
X87532311Y-49110350D01*
X87559333Y-49052403D01*
X87639903Y-48971833D01*
X87697850Y-48944811D01*
X87735154Y-48926575D01*
X87737779Y-48926192D01*
X87743170Y-48923679D01*
X87828084Y-48912500D01*
X89171916Y-48912500D01*
X89256830Y-48923679D01*
G37*
G36*
X76344116Y-47663318D02*
G01*
X76395379Y-47669266D01*
X76412892Y-47676999D01*
X76435671Y-47681530D01*
X76460057Y-47697824D01*
X76480788Y-47706978D01*
X76494946Y-47721136D01*
X76516777Y-47735723D01*
X76531363Y-47757553D01*
X76545521Y-47771711D01*
X76554673Y-47792439D01*
X76570970Y-47816829D01*
X76575501Y-47839609D01*
X76583233Y-47857120D01*
X76589178Y-47908372D01*
X76590000Y-47912500D01*
X76590000Y-49412500D01*
X76589178Y-49416628D01*
X76583233Y-49467879D01*
X76575501Y-49485388D01*
X76570970Y-49508171D01*
X76554672Y-49532562D01*
X76545521Y-49553288D01*
X76531365Y-49567443D01*
X76516777Y-49589277D01*
X76494943Y-49603865D01*
X76480788Y-49618021D01*
X76460062Y-49627172D01*
X76435671Y-49643470D01*
X76412888Y-49648001D01*
X76395379Y-49655733D01*
X76344129Y-49661678D01*
X76340000Y-49662500D01*
X74840000Y-49662500D01*
X74835873Y-49661679D01*
X74784620Y-49655733D01*
X74767109Y-49648001D01*
X74744329Y-49643470D01*
X74719939Y-49627173D01*
X74699211Y-49618021D01*
X74685053Y-49603863D01*
X74663223Y-49589277D01*
X74648636Y-49567446D01*
X74634478Y-49553288D01*
X74625324Y-49532557D01*
X74609030Y-49508171D01*
X74604499Y-49485392D01*
X74596766Y-49467879D01*
X74590818Y-49416617D01*
X74590000Y-49412500D01*
X74590000Y-47912500D01*
X74590818Y-47908385D01*
X74596766Y-47857120D01*
X74604499Y-47839605D01*
X74609030Y-47816829D01*
X74625323Y-47792444D01*
X74634478Y-47771711D01*
X74648638Y-47757550D01*
X74663223Y-47735723D01*
X74685050Y-47721138D01*
X74699211Y-47706978D01*
X74719944Y-47697823D01*
X74744329Y-47681530D01*
X74767105Y-47676999D01*
X74784620Y-47669266D01*
X74835884Y-47663318D01*
X74840000Y-47662500D01*
X76340000Y-47662500D01*
X76344116Y-47663318D01*
G37*
G36*
X84556662Y-48790276D02*
G01*
X84600459Y-48819541D01*
X84629724Y-48863338D01*
X84640000Y-48915000D01*
X84640000Y-49285000D01*
X84629724Y-49336662D01*
X84600459Y-49380459D01*
X84556662Y-49409724D01*
X84505000Y-49420000D01*
X84235000Y-49420000D01*
X84183338Y-49409724D01*
X84139541Y-49380459D01*
X84110276Y-49336662D01*
X84100000Y-49285000D01*
X84100000Y-48915000D01*
X84110276Y-48863338D01*
X84139541Y-48819541D01*
X84183338Y-48790276D01*
X84235000Y-48780000D01*
X84505000Y-48780000D01*
X84556662Y-48790276D01*
G37*
G36*
X85576662Y-48790276D02*
G01*
X85620459Y-48819541D01*
X85649724Y-48863338D01*
X85660000Y-48915000D01*
X85660000Y-49285000D01*
X85649724Y-49336662D01*
X85620459Y-49380459D01*
X85576662Y-49409724D01*
X85525000Y-49420000D01*
X85255000Y-49420000D01*
X85203338Y-49409724D01*
X85159541Y-49380459D01*
X85130276Y-49336662D01*
X85120000Y-49285000D01*
X85120000Y-48915000D01*
X85130276Y-48863338D01*
X85159541Y-48819541D01*
X85203338Y-48790276D01*
X85255000Y-48780000D01*
X85525000Y-48780000D01*
X85576662Y-48790276D01*
G37*
G36*
X82257403Y-47623918D02*
G01*
X82306066Y-47656434D01*
X82338582Y-47705097D01*
X82350000Y-47762500D01*
X82350000Y-48937500D01*
X82338582Y-48994903D01*
X82306066Y-49043566D01*
X82257403Y-49076082D01*
X82200000Y-49087500D01*
X81900000Y-49087500D01*
X81842597Y-49076082D01*
X81793934Y-49043566D01*
X81761418Y-48994903D01*
X81750000Y-48937500D01*
X81750000Y-47762500D01*
X81761418Y-47705097D01*
X81793934Y-47656434D01*
X81842597Y-47623918D01*
X81900000Y-47612500D01*
X82200000Y-47612500D01*
X82257403Y-47623918D01*
G37*
G36*
X89256830Y-46423679D02*
G01*
X89262220Y-46426192D01*
X89264845Y-46426575D01*
X89302127Y-46444801D01*
X89360097Y-46471833D01*
X89440667Y-46552403D01*
X89467709Y-46610395D01*
X89485924Y-46647654D01*
X89486306Y-46650276D01*
X89488821Y-46655670D01*
X89500000Y-46740584D01*
X89500000Y-48084416D01*
X89488821Y-48169330D01*
X89486305Y-48174723D01*
X89485924Y-48177345D01*
X89467719Y-48214583D01*
X89440667Y-48272597D01*
X89360097Y-48353167D01*
X89302083Y-48380219D01*
X89264845Y-48398424D01*
X89262223Y-48398805D01*
X89256830Y-48401321D01*
X89171916Y-48412500D01*
X87828084Y-48412500D01*
X87743170Y-48401321D01*
X87737776Y-48398806D01*
X87735154Y-48398424D01*
X87697895Y-48380209D01*
X87639903Y-48353167D01*
X87559333Y-48272597D01*
X87532301Y-48214627D01*
X87514075Y-48177345D01*
X87513692Y-48174720D01*
X87511179Y-48169330D01*
X87500000Y-48084416D01*
X87500000Y-46740584D01*
X87511179Y-46655670D01*
X87513692Y-46650279D01*
X87514075Y-46647654D01*
X87532311Y-46610350D01*
X87559333Y-46552403D01*
X87639903Y-46471833D01*
X87697850Y-46444811D01*
X87735154Y-46426575D01*
X87737779Y-46426192D01*
X87743170Y-46423679D01*
X87828084Y-46412500D01*
X89171916Y-46412500D01*
X89256830Y-46423679D01*
G37*
G36*
X78866662Y-47640276D02*
G01*
X78910459Y-47669541D01*
X78939724Y-47713338D01*
X78950000Y-47765000D01*
X78950000Y-48135000D01*
X78939724Y-48186662D01*
X78910459Y-48230459D01*
X78866662Y-48259724D01*
X78815000Y-48270000D01*
X78545000Y-48270000D01*
X78493338Y-48259724D01*
X78449541Y-48230459D01*
X78420276Y-48186662D01*
X78410000Y-48135000D01*
X78410000Y-47765000D01*
X78420276Y-47713338D01*
X78449541Y-47669541D01*
X78493338Y-47640276D01*
X78545000Y-47630000D01*
X78815000Y-47630000D01*
X78866662Y-47640276D01*
G37*
G36*
X79886662Y-47640276D02*
G01*
X79930459Y-47669541D01*
X79959724Y-47713338D01*
X79970000Y-47765000D01*
X79970000Y-48135000D01*
X79959724Y-48186662D01*
X79930459Y-48230459D01*
X79886662Y-48259724D01*
X79835000Y-48270000D01*
X79565000Y-48270000D01*
X79513338Y-48259724D01*
X79469541Y-48230459D01*
X79440276Y-48186662D01*
X79430000Y-48135000D01*
X79430000Y-47765000D01*
X79440276Y-47713338D01*
X79469541Y-47669541D01*
X79513338Y-47640276D01*
X79565000Y-47630000D01*
X79835000Y-47630000D01*
X79886662Y-47640276D01*
G37*
G36*
X84573576Y-47650657D02*
G01*
X84618995Y-47681005D01*
X84649343Y-47726424D01*
X84660000Y-47780000D01*
X84660000Y-48120000D01*
X84649343Y-48173576D01*
X84618995Y-48218995D01*
X84573576Y-48249343D01*
X84520000Y-48260000D01*
X84240000Y-48260000D01*
X84186424Y-48249343D01*
X84141005Y-48218995D01*
X84110657Y-48173576D01*
X84100000Y-48120000D01*
X84100000Y-47780000D01*
X84110657Y-47726424D01*
X84141005Y-47681005D01*
X84186424Y-47650657D01*
X84240000Y-47640000D01*
X84520000Y-47640000D01*
X84573576Y-47650657D01*
G37*
G36*
X85533576Y-47650657D02*
G01*
X85578995Y-47681005D01*
X85609343Y-47726424D01*
X85620000Y-47780000D01*
X85620000Y-48120000D01*
X85609343Y-48173576D01*
X85578995Y-48218995D01*
X85533576Y-48249343D01*
X85480000Y-48260000D01*
X85200000Y-48260000D01*
X85146424Y-48249343D01*
X85101005Y-48218995D01*
X85070657Y-48173576D01*
X85060000Y-48120000D01*
X85060000Y-47780000D01*
X85070657Y-47726424D01*
X85101005Y-47681005D01*
X85146424Y-47650657D01*
X85200000Y-47640000D01*
X85480000Y-47640000D01*
X85533576Y-47650657D01*
G37*
G36*
X81307403Y-45748918D02*
G01*
X81356066Y-45781434D01*
X81388582Y-45830097D01*
X81400000Y-45887500D01*
X81400000Y-47062500D01*
X81388582Y-47119903D01*
X81356066Y-47168566D01*
X81307403Y-47201082D01*
X81250000Y-47212500D01*
X80950000Y-47212500D01*
X80892597Y-47201082D01*
X80843934Y-47168566D01*
X80811418Y-47119903D01*
X80800000Y-47062500D01*
X80800000Y-45887500D01*
X80811418Y-45830097D01*
X80843934Y-45781434D01*
X80892597Y-45748918D01*
X80950000Y-45737500D01*
X81250000Y-45737500D01*
X81307403Y-45748918D01*
G37*
G36*
X83207403Y-45748918D02*
G01*
X83256066Y-45781434D01*
X83288582Y-45830097D01*
X83300000Y-45887500D01*
X83300000Y-47062500D01*
X83288582Y-47119903D01*
X83256066Y-47168566D01*
X83207403Y-47201082D01*
X83150000Y-47212500D01*
X82850000Y-47212500D01*
X82792597Y-47201082D01*
X82743934Y-47168566D01*
X82711418Y-47119903D01*
X82700000Y-47062500D01*
X82700000Y-45887500D01*
X82711418Y-45830097D01*
X82743934Y-45781434D01*
X82792597Y-45748918D01*
X82850000Y-45737500D01*
X83150000Y-45737500D01*
X83207403Y-45748918D01*
G37*
G36*
X76344116Y-45163318D02*
G01*
X76395379Y-45169266D01*
X76412892Y-45176999D01*
X76435671Y-45181530D01*
X76460057Y-45197824D01*
X76480788Y-45206978D01*
X76494946Y-45221136D01*
X76516777Y-45235723D01*
X76531363Y-45257553D01*
X76545521Y-45271711D01*
X76554673Y-45292439D01*
X76570970Y-45316829D01*
X76575501Y-45339609D01*
X76583233Y-45357120D01*
X76589178Y-45408372D01*
X76590000Y-45412500D01*
X76590000Y-46912500D01*
X76589178Y-46916628D01*
X76583233Y-46967879D01*
X76575501Y-46985388D01*
X76570970Y-47008171D01*
X76554672Y-47032562D01*
X76545521Y-47053288D01*
X76531365Y-47067443D01*
X76516777Y-47089277D01*
X76494943Y-47103865D01*
X76480788Y-47118021D01*
X76460062Y-47127172D01*
X76435671Y-47143470D01*
X76412888Y-47148001D01*
X76395379Y-47155733D01*
X76344129Y-47161678D01*
X76340000Y-47162500D01*
X74840000Y-47162500D01*
X74835873Y-47161679D01*
X74784620Y-47155733D01*
X74767109Y-47148001D01*
X74744329Y-47143470D01*
X74719939Y-47127173D01*
X74699211Y-47118021D01*
X74685053Y-47103863D01*
X74663223Y-47089277D01*
X74648636Y-47067446D01*
X74634478Y-47053288D01*
X74625324Y-47032557D01*
X74609030Y-47008171D01*
X74604499Y-46985392D01*
X74596766Y-46967879D01*
X74590818Y-46916617D01*
X74590000Y-46912500D01*
X74590000Y-45412500D01*
X74590818Y-45408385D01*
X74596766Y-45357120D01*
X74604499Y-45339605D01*
X74609030Y-45316829D01*
X74625323Y-45292444D01*
X74634478Y-45271711D01*
X74648638Y-45257550D01*
X74663223Y-45235723D01*
X74685050Y-45221138D01*
X74699211Y-45206978D01*
X74719944Y-45197823D01*
X74744329Y-45181530D01*
X74767105Y-45176999D01*
X74784620Y-45169266D01*
X74835884Y-45163318D01*
X74840000Y-45162500D01*
X76340000Y-45162500D01*
X76344116Y-45163318D01*
G37*
G36*
X78866662Y-46490276D02*
G01*
X78910459Y-46519541D01*
X78939724Y-46563338D01*
X78950000Y-46615000D01*
X78950000Y-46985000D01*
X78939724Y-47036662D01*
X78910459Y-47080459D01*
X78866662Y-47109724D01*
X78815000Y-47120000D01*
X78545000Y-47120000D01*
X78493338Y-47109724D01*
X78449541Y-47080459D01*
X78420276Y-47036662D01*
X78410000Y-46985000D01*
X78410000Y-46615000D01*
X78420276Y-46563338D01*
X78449541Y-46519541D01*
X78493338Y-46490276D01*
X78545000Y-46480000D01*
X78815000Y-46480000D01*
X78866662Y-46490276D01*
G37*
G36*
X79886662Y-46490276D02*
G01*
X79930459Y-46519541D01*
X79959724Y-46563338D01*
X79970000Y-46615000D01*
X79970000Y-46985000D01*
X79959724Y-47036662D01*
X79930459Y-47080459D01*
X79886662Y-47109724D01*
X79835000Y-47120000D01*
X79565000Y-47120000D01*
X79513338Y-47109724D01*
X79469541Y-47080459D01*
X79440276Y-47036662D01*
X79430000Y-46985000D01*
X79430000Y-46615000D01*
X79440276Y-46563338D01*
X79469541Y-46519541D01*
X79513338Y-46490276D01*
X79565000Y-46480000D01*
X79835000Y-46480000D01*
X79886662Y-46490276D01*
G37*
G36*
X84556662Y-46490276D02*
G01*
X84600459Y-46519541D01*
X84629724Y-46563338D01*
X84640000Y-46615000D01*
X84640000Y-46985000D01*
X84629724Y-47036662D01*
X84600459Y-47080459D01*
X84556662Y-47109724D01*
X84505000Y-47120000D01*
X84235000Y-47120000D01*
X84183338Y-47109724D01*
X84139541Y-47080459D01*
X84110276Y-47036662D01*
X84100000Y-46985000D01*
X84100000Y-46615000D01*
X84110276Y-46563338D01*
X84139541Y-46519541D01*
X84183338Y-46490276D01*
X84235000Y-46480000D01*
X84505000Y-46480000D01*
X84556662Y-46490276D01*
G37*
G36*
X85576662Y-46490276D02*
G01*
X85620459Y-46519541D01*
X85649724Y-46563338D01*
X85660000Y-46615000D01*
X85660000Y-46985000D01*
X85649724Y-47036662D01*
X85620459Y-47080459D01*
X85576662Y-47109724D01*
X85525000Y-47120000D01*
X85255000Y-47120000D01*
X85203338Y-47109724D01*
X85159541Y-47080459D01*
X85130276Y-47036662D01*
X85120000Y-46985000D01*
X85120000Y-46615000D01*
X85130276Y-46563338D01*
X85159541Y-46519541D01*
X85203338Y-46490276D01*
X85255000Y-46480000D01*
X85525000Y-46480000D01*
X85576662Y-46490276D01*
G37*
G36*
X84556662Y-45340276D02*
G01*
X84600459Y-45369541D01*
X84629724Y-45413338D01*
X84640000Y-45465000D01*
X84640000Y-45835000D01*
X84629724Y-45886662D01*
X84600459Y-45930459D01*
X84556662Y-45959724D01*
X84505000Y-45970000D01*
X84235000Y-45970000D01*
X84183338Y-45959724D01*
X84139541Y-45930459D01*
X84110276Y-45886662D01*
X84100000Y-45835000D01*
X84100000Y-45465000D01*
X84110276Y-45413338D01*
X84139541Y-45369541D01*
X84183338Y-45340276D01*
X84235000Y-45330000D01*
X84505000Y-45330000D01*
X84556662Y-45340276D01*
G37*
G36*
X85576662Y-45340276D02*
G01*
X85620459Y-45369541D01*
X85649724Y-45413338D01*
X85660000Y-45465000D01*
X85660000Y-45835000D01*
X85649724Y-45886662D01*
X85620459Y-45930459D01*
X85576662Y-45959724D01*
X85525000Y-45970000D01*
X85255000Y-45970000D01*
X85203338Y-45959724D01*
X85159541Y-45930459D01*
X85130276Y-45886662D01*
X85120000Y-45835000D01*
X85120000Y-45465000D01*
X85130276Y-45413338D01*
X85159541Y-45369541D01*
X85203338Y-45340276D01*
X85255000Y-45330000D01*
X85525000Y-45330000D01*
X85576662Y-45340276D01*
G37*
G36*
X89256830Y-43923679D02*
G01*
X89262220Y-43926192D01*
X89264845Y-43926575D01*
X89302127Y-43944801D01*
X89360097Y-43971833D01*
X89440667Y-44052403D01*
X89467709Y-44110395D01*
X89485924Y-44147654D01*
X89486306Y-44150276D01*
X89488821Y-44155670D01*
X89500000Y-44240584D01*
X89500000Y-45584416D01*
X89488821Y-45669330D01*
X89486305Y-45674723D01*
X89485924Y-45677345D01*
X89467719Y-45714583D01*
X89440667Y-45772597D01*
X89360097Y-45853167D01*
X89302083Y-45880219D01*
X89264845Y-45898424D01*
X89262223Y-45898805D01*
X89256830Y-45901321D01*
X89171916Y-45912500D01*
X87828084Y-45912500D01*
X87743170Y-45901321D01*
X87737776Y-45898806D01*
X87735154Y-45898424D01*
X87697895Y-45880209D01*
X87639903Y-45853167D01*
X87559333Y-45772597D01*
X87532301Y-45714627D01*
X87514075Y-45677345D01*
X87513692Y-45674720D01*
X87511179Y-45669330D01*
X87500000Y-45584416D01*
X87500000Y-44240584D01*
X87511179Y-44155670D01*
X87513692Y-44150279D01*
X87514075Y-44147654D01*
X87532311Y-44110350D01*
X87559333Y-44052403D01*
X87639903Y-43971833D01*
X87697850Y-43944811D01*
X87735154Y-43926575D01*
X87737779Y-43926192D01*
X87743170Y-43923679D01*
X87828084Y-43912500D01*
X89171916Y-43912500D01*
X89256830Y-43923679D01*
G37*
M02*
